<?xml version="1.0" encoding="UTF-8" standalone="no"?>
<svg width="261px" height="269px" viewBox="0 0 261 269" version="1.1" xmlns="http://www.w3.org/2000/svg" xmlns:xlink="http://www.w3.org/1999/xlink" xmlns:sketch="http://www.bohemiancoding.com/sketch/ns">
    <!-- Generator: Sketch 3.2.2 (9983) - http://www.bohemiancoding.com/sketch -->
    <title>Untitled 9</title>
    <desc>Created with Sketch.</desc>
    <defs></defs>
    <g id="Page-1" stroke="none" stroke-width="1" fill="none" fill-rule="evenodd" sketch:type="MSPage">
        <g id="Group" sketch:type="MSLayerGroup" transform="translate(2.000000, 2.000000)">
            <path d="M118.350422,126.327527 C118.350422,126.327527 112.871539,147.350011 111.93329,150.537556 C103.942967,177.683345 86.465983,239.096303 86.465983,239.096303" id="Path-58" stroke="#B8E986" stroke-width="3" sketch:type="MSShapeGroup" transform="translate(102.408203, 182.711915) rotate(9.000000) translate(-102.408203, -182.711915) "></path>
            <path d="M119.843557,132.665423 L142.438936,241.234321" id="Path-59" stroke="#FC46AD" stroke-width="2" sketch:type="MSShapeGroup" transform="translate(131.141247, 186.949872) rotate(9.000000) translate(-131.141247, -186.949872) "></path>
            <path d="M120.923275,136.327807 L194.055085,223.544529" id="Path-60" stroke="#D0D202" stroke-width="2" sketch:type="MSShapeGroup" transform="translate(157.489180, 179.936168) rotate(9.000000) translate(-157.489180, -179.936168) "></path>
            <path d="M179.562336,17.8249426 L143.698174,133.846347" id="Path-58" stroke="#B8E986" stroke-width="2" sketch:type="MSShapeGroup" transform="translate(161.630255, 75.835645) rotate(-165.000000) translate(-161.630255, -75.835645) "></path>
            <path d="M110.892215,7.63766131 L143.724586,126.274355" id="Path-59" stroke="#FFE217" stroke-width="2" sketch:type="MSShapeGroup" transform="translate(127.308401, 66.956008) rotate(-165.000000) translate(-127.308401, -66.956008) "></path>
            <path d="M55.3257674,25.7667872 L142.465538,120.566918" id="Path-60" stroke="#FC46AD" stroke-width="2" sketch:type="MSShapeGroup" transform="translate(98.895653, 73.166852) rotate(-165.000000) translate(-98.895653, -73.166852) "></path>
            <path d="M198.35904,105.458064 L161.773069,223.598866" id="Path-58" stroke="#B8E986" stroke-width="3" sketch:type="MSShapeGroup" transform="translate(180.066054, 164.528465) rotate(-74.000000) translate(-180.066054, -164.528465) "></path>
            <path d="M183.979309,75.470935 L201.974787,204.018749" id="Path-59" stroke="#FC46AD" stroke-width="2" sketch:type="MSShapeGroup" transform="translate(192.977048, 139.744842) rotate(-74.000000) translate(-192.977048, -139.744842) "></path>
            <path d="M146.454121,53.5458334 L227.175148,153.69563" id="Path-60" stroke="#D0D202" stroke-width="2" sketch:type="MSShapeGroup" transform="translate(186.814634, 103.620732) rotate(-74.000000) translate(-186.814634, -103.620732) "></path>
            <path d="M94.4127006,27.0036828 L46.0682754,156.269505" id="Path-58" stroke="#51CAD7" stroke-width="3" sketch:type="MSShapeGroup" transform="translate(70.240488, 91.636594) rotate(-257.000000) translate(-70.240488, -91.636594) "></path>
            <path d="M54.5993676,60.5825031 L71.3919207,185.780336" id="Path-59" stroke="#D0011B" stroke-width="2" sketch:type="MSShapeGroup" transform="translate(62.995644, 123.181420) rotate(-257.000000) translate(-62.995644, -123.181420) "></path>
            <path d="M29.3969741,113.63349 L113.205038,207.338224" id="Path-60" stroke="#FC3F6B" stroke-width="2" sketch:type="MSShapeGroup" transform="translate(71.301006, 160.485857) rotate(-257.000000) translate(-71.301006, -160.485857) "></path>
            <path d="M202.377065,75.1529179 C202.377065,75.1529179 196.898182,96.1754021 195.959933,99.3629466 C187.96961,126.508735 170.492626,187.921694 170.492626,187.921694" id="Path-58" stroke="#B8E986" stroke-width="3" sketch:type="MSShapeGroup" transform="translate(186.434846, 131.537306) rotate(-104.000000) translate(-186.434846, -131.537306) "></path>
            <path d="M167.811321,49.1480489 L190.4067,157.716946" id="Path-59" stroke="#FC46AD" stroke-width="2" sketch:type="MSShapeGroup" transform="translate(179.109011, 103.432498) rotate(-104.000000) translate(-179.109011, -103.432498) "></path>
            <path d="M125.792,38.3112087 L198.92381,125.527931" id="Path-60" stroke="#D0D202" stroke-width="2" sketch:type="MSShapeGroup" transform="translate(162.357905, 81.919570) rotate(-104.000000) translate(-162.357905, -81.919570) "></path>
            <path d="M82.8469021,60.7723026 L46.9827396,176.793707" id="Path-58" stroke="#B8E986" stroke-width="2" sketch:type="MSShapeGroup" transform="translate(64.914821, 118.783005) rotate(-278.000000) translate(-64.914821, -118.783005) "></path>
            <path d="M53.7355039,94.5276419 L86.5678744,213.164336" id="Path-59" stroke="#FFE217" stroke-width="2" sketch:type="MSShapeGroup" transform="translate(70.151689, 153.845989) rotate(-278.000000) translate(-70.151689, -153.845989) "></path>
            <path d="M43.4006609,130.173225 L130.540432,224.973356" id="Path-60" stroke="#FC46AD" stroke-width="2" sketch:type="MSShapeGroup" transform="translate(86.970546, 177.573291) rotate(-278.000000) translate(-86.970546, -177.573291) "></path>
            <path d="M157.646537,8.08731537 L121.060566,126.228117" id="Path-58" stroke="#B8E986" stroke-width="3" sketch:type="MSShapeGroup" transform="translate(139.353552, 67.157716) rotate(-187.000000) translate(-139.353552, -67.157716) "></path>
            <path d="M102.49764,0.682909794 L120.493118,129.230724" id="Path-59" stroke="#FC46AD" stroke-width="2" sketch:type="MSShapeGroup" transform="translate(111.495379, 64.956817) rotate(-187.000000) translate(-111.495379, -64.956817) "></path>
            <path d="M40.2902938,34.6692648 L121.011321,134.819061" id="Path-60" stroke="#D0D202" stroke-width="2" sketch:type="MSShapeGroup" transform="translate(80.650807, 84.744163) rotate(-187.000000) translate(-80.650807, -84.744163) "></path>
            <path d="M139.340711,132.100895 L90.9962855,261.366717" id="Path-58" stroke="#51CAD7" stroke-width="3" sketch:type="MSShapeGroup" transform="translate(115.168498, 196.733806) rotate(-10.000000) translate(-115.168498, -196.733806) "></path>
            <path d="M138.640173,128.478258 L155.432726,253.676091" id="Path-59" stroke="#D0011B" stroke-width="2" sketch:type="MSShapeGroup" transform="translate(147.036449, 191.077175) rotate(-10.000000) translate(-147.036449, -191.077175) "></path>
            <path d="M136.22617,122.003677 L220.034234,215.708411" id="Path-60" stroke="#FC3F6B" stroke-width="2" sketch:type="MSShapeGroup" transform="translate(178.130202, 168.856044) rotate(-10.000000) translate(-178.130202, -168.856044) "></path>
        </g>
    </g>
</svg>